HIERARCHY
ROOT hip
{
OFFSET 0.33 96.62 -0.53
CHANNELS 6 Xposition Yposition Zposition Zrotation Xrotation Yrotation
JOINT abdomen
{
OFFSET 0.04 7.24 0
CHANNELS 6 Xposition Yposition Zposition Zrotation Xrotation Yrotation
JOINT chest
{
OFFSET 0 16.55 -0
CHANNELS 6 Xposition Yposition Zposition Zrotation Xrotation Yrotation
JOINT neck
{
OFFSET -0 34.21 -0
CHANNELS 6 Xposition Yposition Zposition Zrotation Xrotation Yrotation
JOINT head
{
OFFSET 0 6.29 0
CHANNELS 6 Xposition Yposition Zposition Zrotation Xrotation Yrotation
End Site
{
OFFSET 0 0 0
}
}
}
JOINT lCollar
{
OFFSET 4.06 26.61 -1.12
CHANNELS 6 Xposition Yposition Zposition Zrotation Xrotation Yrotation
JOINT lShldr
{
OFFSET 14.17 0 0
CHANNELS 6 Xposition Yposition Zposition Zrotation Xrotation Yrotation
JOINT lForeArm
{
OFFSET 26.12 0 0
CHANNELS 6 Xposition Yposition Zposition Zrotation Xrotation Yrotation
JOINT lHand
{
OFFSET 27.71 0 0
CHANNELS 6 Xposition Yposition Zposition Zrotation Xrotation Yrotation
JOINT lThumb1
{
OFFSET 2.29 -0.46 1.83
CHANNELS 6 Xposition Yposition Zposition Zrotation Xrotation Yrotation
JOINT lThumb2
{
OFFSET 5.29 0 0
CHANNELS 6 Xposition Yposition Zposition Zrotation Xrotation Yrotation
JOINT lThumb3
{
OFFSET 3.01 0 0
CHANNELS 6 Xposition Yposition Zposition Zrotation Xrotation Yrotation
End Site
{
OFFSET 0 0 0
}
}
}
}
JOINT lIndex1
{
OFFSET 9.37 0.29 2.59
CHANNELS 6 Xposition Yposition Zposition Zrotation Xrotation Yrotation
JOINT lIndex2
{
OFFSET 4.34 0 0
CHANNELS 6 Xposition Yposition Zposition Zrotation Xrotation Yrotation
JOINT lIndex3
{
OFFSET 2.16 0 0
CHANNELS 6 Xposition Yposition Zposition Zrotation Xrotation Yrotation
End Site
{
OFFSET 0 0 0
}
}
}
}
JOINT lMid1
{
OFFSET 9.47 0.83 0.29
CHANNELS 6 Xposition Yposition Zposition Zrotation Xrotation Yrotation
JOINT lMid2
{
OFFSET 4.77 0 0
CHANNELS 6 Xposition Yposition Zposition Zrotation Xrotation Yrotation
JOINT lMid3
{
OFFSET 2.87 0 0
CHANNELS 6 Xposition Yposition Zposition Zrotation Xrotation Yrotation
End Site
{
OFFSET 0 0 0
}
}
}
}
JOINT lRing1
{
OFFSET 8.65 1.01 -1.70
CHANNELS 6 Xposition Yposition Zposition Zrotation Xrotation Yrotation
JOINT lRing2
{
OFFSET 4.54 0 0
CHANNELS 6 Xposition Yposition Zposition Zrotation Xrotation Yrotation
JOINT lRing3
{
OFFSET 2.50 0 0
CHANNELS 6 Xposition Yposition Zposition Zrotation Xrotation Yrotation
End Site
{
OFFSET 0 0 0
}
}
}
}
JOINT lPinky1
{
OFFSET 7.69 0.66 -3.90
CHANNELS 6 Xposition Yposition Zposition Zrotation Xrotation Yrotation
JOINT lPinky2
{
OFFSET 3.21 0 0
CHANNELS 6 Xposition Yposition Zposition Zrotation Xrotation Yrotation
JOINT lPinky3
{
OFFSET 1.92 0 0
CHANNELS 6 Xposition Yposition Zposition Zrotation Xrotation Yrotation
End Site
{
OFFSET 0 0 0
}
}
}
}
}
}
}
}
JOINT rCollar
{
OFFSET -4.06 26.61 -1.12
CHANNELS 6 Xposition Yposition Zposition Zrotation Xrotation Yrotation
JOINT rShldr
{
OFFSET -14.17 0 0
CHANNELS 6 Xposition Yposition Zposition Zrotation Xrotation Yrotation
JOINT rForeArm
{
OFFSET -26.12 0 0
CHANNELS 6 Xposition Yposition Zposition Zrotation Xrotation Yrotation
JOINT rHand
{
OFFSET -27.71 0 0
CHANNELS 6 Xposition Yposition Zposition Zrotation Xrotation Yrotation
JOINT rThumb1
{
OFFSET -2.29 -0.46 1.83
CHANNELS 6 Xposition Yposition Zposition Zrotation Xrotation Yrotation
JOINT rThumb2
{
OFFSET -5.29 0 0
CHANNELS 6 Xposition Yposition Zposition Zrotation Xrotation Yrotation
JOINT rThumb3
{
OFFSET -3.01 0 0
CHANNELS 6 Xposition Yposition Zposition Zrotation Xrotation Yrotation
End Site
{
OFFSET 0 0 0
}
}
}
}
JOINT rIndex1
{
OFFSET -9.37 0.29 2.59
CHANNELS 6 Xposition Yposition Zposition Zrotation Xrotation Yrotation
JOINT rIndex2
{
OFFSET -4.34 0 0
CHANNELS 6 Xposition Yposition Zposition Zrotation Xrotation Yrotation
JOINT rIndex3
{
OFFSET -2.16 0 0
CHANNELS 6 Xposition Yposition Zposition Zrotation Xrotation Yrotation
End Site
{
OFFSET 0 0 0
}
}
}
}
JOINT rMid1
{
OFFSET -9.47 0.83 0.29
CHANNELS 6 Xposition Yposition Zposition Zrotation Xrotation Yrotation
JOINT rMid2
{
OFFSET -4.77 0 0
CHANNELS 6 Xposition Yposition Zposition Zrotation Xrotation Yrotation
JOINT rMid3
{
OFFSET -2.87 0 0
CHANNELS 6 Xposition Yposition Zposition Zrotation Xrotation Yrotation
End Site
{
OFFSET 0 0 0
}
}
}
}
JOINT rRing1
{
OFFSET -8.65 1.01 -1.70
CHANNELS 6 Xposition Yposition Zposition Zrotation Xrotation Yrotation
JOINT rRing2
{
OFFSET -4.54 0 0
CHANNELS 6 Xposition Yposition Zposition Zrotation Xrotation Yrotation
JOINT rRing3
{
OFFSET -2.50 0 0
CHANNELS 6 Xposition Yposition Zposition Zrotation Xrotation Yrotation
End Site
{
OFFSET 0 0 0
}
}
}
}
JOINT rPinky1
{
OFFSET -7.69 0.66 -3.90
CHANNELS 6 Xposition Yposition Zposition Zrotation Xrotation Yrotation
JOINT rPinky2
{
OFFSET -3.21 0 0
CHANNELS 6 Xposition Yposition Zposition Zrotation Xrotation Yrotation
JOINT rPinky3
{
OFFSET -1.92 0 0
CHANNELS 6 Xposition Yposition Zposition Zrotation Xrotation Yrotation
End Site
{
OFFSET 0 0 0
}
}
}
}
}
}
}
}
}
}
JOINT lThigh
{
OFFSET 8.73 -0 0
CHANNELS 6 Xposition Yposition Zposition Zrotation Xrotation Yrotation
JOINT lShin
{
OFFSET 0 -46.66 0
CHANNELS 6 Xposition Yposition Zposition Zrotation Xrotation Yrotation
JOINT lFoot
{
OFFSET 0 -40.14 0
CHANNELS 6 Xposition Yposition Zposition Zrotation Xrotation Yrotation
JOINT lToes
{
OFFSET 0 -8.88 14.22
CHANNELS 6 Xposition Yposition Zposition Zrotation Xrotation Yrotation
End Site
{
OFFSET 0 0 0
}
}
}
}
}
JOINT rThigh
{
OFFSET -8.73 0 -0
CHANNELS 6 Xposition Yposition Zposition Zrotation Xrotation Yrotation
JOINT rShin
{
OFFSET 0 -46.66 0
CHANNELS 6 Xposition Yposition Zposition Zrotation Xrotation Yrotation
JOINT rFoot
{
OFFSET 0 -40.14 0
CHANNELS 6 Xposition Yposition Zposition Zrotation Xrotation Yrotation
JOINT rToes
{
OFFSET 0 -8.88 14.22
CHANNELS 6 Xposition Yposition Zposition Zrotation Xrotation Yrotation
End Site
{
OFFSET 0 0 0
}
}
}
}
}
}
MOTION
Frames: 4
Frame Time: 0.03
1.35 40.55 164.26 -1.75 -14.80 -24.18 0.04 7.24 0 -1.57 7.66 3.99 -0 16.56 0 -15.37 42.21 22.16 -0 34.21 0 3.24 30.10 2.17 0 6.29 0 0.54 -26.63 -0.75 4.06 26.61 -1.12 2.22 -4.46 2.51 14.17 0 0 -61.78 19.28 -78.41 26.12 0 0 0 0 -64.72 27.71 0 0 172.46 -40.71 -165.73 2.29 -0.46 1.83 135.77 31.70 -169.37 5.29 0 0 -14.23 -3.43 3.85 3.01 0 0 12.48 0 0 9.37 0.29 2.59 -22.79 -6.07 -9.19 4.34 0 0 -24.20 -1.30 4.74 2.16 0 0 -2.16 0 0 9.47 0.83 0.29 -17.46 1.55 0.25 4.77 0 0 -41.13 -3.76 9.73 2.87 0 0 3.95 -0.04 0.40 8.65 1.01 -1.70 -1.99 -6.85 1.71 4.54 0 0 -66.85 -4.81 7.24 2.50 0 0 6.76 0 -0 7.69 0.66 -3.90 21.04 10.72 -6.09 3.21 0 0 -46.20 -6.08 14.48 1.92 0 0 4.41 0 0 -4.06 26.61 -1.12 -3.64 -3.51 -16.23 -14.17 0 0 40.23 22.08 40.76 -26.12 0 0 0 0 116.41 -27.71 0 0 -40.84 -12.83 -11.58 -2.29 -0.46 1.83 -154.88 -3.56 175.18 -5.29 0 0 24.75 2.60 20.76 -3.01 0 0 -10.64 -0.02 -0.33 -9.37 0.29 2.59 4.76 -5.99 -23.37 -4.34 0 0 12.59 0.06 -1.58 -2.16 0 0 10.45 -0.09 -0.99 -9.47 0.83 0.29 22.98 -4.58 -23.00 -4.77 0 0 124.81 -20.11 -6.00 -2.87 0 0 7.21 0.05 -2.14 -8.65 1.01 -1.70 21.99 -27.55 -14.49 -4.54 0 0 162.98 -10.46 3.28 -2.50 0 0 9.02 -0 -1.26 -7.69 0.66 -3.90 12.36 -44.84 -5.92 -3.21 0 0 146.08 -27.50 2.74 -1.92 0 0 60.70 -3.80 -3.14 8.73 -0 0 75.12 -50.86 63.55 0 -46.66 0 -180 52.64 -180 0 -40.14 0 -10.47 -31.98 16.76 0 -8.88 14.22 0 0 0 -8.73 0 -0 -23.62 -4.22 33.55 0 -46.66 0 180 56.62 -180 0 -40.14 0 -11.00 -45.74 -16.89 0 -8.88 14.22 0 0 0 
1.34 40.56 164.28 -1.71 -14.73 -24.18 0.04 7.24 0 -1.57 7.59 3.91 -0 16.56 0 -15.17 42.06 21.72 -0 34.21 0 3.17 30.15 2.15 0 6.29 0 0.41 -26.66 -0.56 4.06 26.61 -1.12 2.25 -4.46 2.64 14.17 0 0 -62.14 19.19 -77.99 26.12 0 0 0 0 -64.79 27.71 0 0 172.44 -40.95 -165.70 2.29 -0.46 1.83 135.76 31.74 -169.37 5.29 0 0 -14.31 -3.44 3.88 3.01 0 0 12.48 0 0 9.37 0.29 2.59 -22.54 -6.15 -9.25 4.34 0 0 -23.97 -1.28 4.70 2.16 0 0 -2.16 0 0 9.47 0.83 0.29 -17.16 1.58 0.13 4.77 0 0 -40.96 -3.73 9.70 2.87 0 0 3.95 -0.04 0.40 8.65 1.01 -1.70 -1.64 -6.75 1.66 4.54 0 0 -66.85 -4.81 7.24 2.50 0 0 6.76 0 -0 7.69 0.66 -3.90 21.48 10.88 -6.25 3.21 0 0 -46.13 -6.06 14.46 1.92 0 0 4.41 0 0 -4.06 26.61 -1.12 -3.64 -3.51 -16.18 -14.17 0 0 40.14 22.33 41.00 -26.12 0 0 0 0 116.38 -27.71 0 0 -40.69 -12.78 -11.59 -2.29 -0.46 1.83 -154.88 -3.56 175.18 -5.29 0 0 24.75 2.60 20.76 -3.01 0 0 -10.64 -0.02 -0.33 -9.37 0.29 2.59 4.76 -5.99 -23.37 -4.34 0 0 12.59 0.06 -1.58 -2.16 0 0 10.45 -0.09 -0.99 -9.47 0.83 0.29 22.98 -4.58 -23.00 -4.77 0 0 124.81 -20.11 -6.00 -2.87 0 0 7.21 0.05 -2.14 -8.65 1.01 -1.70 21.99 -27.55 -14.49 -4.54 0 0 162.98 -10.46 3.28 -2.50 0 0 9.02 -0 -1.26 -7.69 0.66 -3.90 12.36 -44.84 -5.92 -3.21 0 0 146.08 -27.50 2.74 -1.92 0 0 60.70 -3.80 -3.14 8.73 -0 0 75.18 -50.85 63.63 0 -46.66 0 -180 52.64 -180 0 -40.14 0 -10.48 -31.99 16.74 0 -8.88 14.22 0 0 0 -8.73 0 -0 -23.62 -4.28 33.52 0 -46.66 0 180 56.64 -180 0 -40.14 0 -11.01 -45.74 -16.91 0 -8.88 14.22 0 0 0 
1.35 40.56 164.28 -1.67 -14.66 -24.19 0.04 7.24 0 -1.56 7.53 3.83 -0 16.56 0 -14.95 41.89 21.26 -0 34.21 0 3.09 30.22 2.14 0 6.29 0 0.29 -26.71 -0.40 4.06 26.61 -1.12 2.27 -4.45 2.76 14.17 0 0 -62.47 19.03 -77.54 26.12 0 0 0 0 -64.91 27.71 0 0 172.41 -41.15 -165.75 2.29 -0.46 1.83 135.70 31.77 -169.35 5.29 0 0 -14.36 -3.45 3.90 3.01 0 0 12.48 0 0 9.37 0.29 2.59 -22.36 -6.20 -9.29 4.34 0 0 -23.80 -1.26 4.66 2.16 0 0 -2.16 0 0 9.47 0.83 0.29 -16.94 1.62 0.04 4.77 0 0 -40.83 -3.71 9.67 2.87 0 0 3.95 -0.04 0.40 8.65 1.01 -1.70 -1.39 -6.68 1.63 4.54 0 0 -66.83 -4.80 7.24 2.50 0 0 6.76 0 -0 7.69 0.66 -3.90 21.79 10.99 -6.37 3.21 0 0 -46.06 -6.04 14.44 1.92 0 0 4.41 0 0 -4.06 26.61 -1.12 -3.65 -3.51 -16.13 -14.17 0 0 40.04 22.59 41.25 -26.12 0 0 0 0 116.33 -27.71 0 0 -40.52 -12.72 -11.61 -2.29 -0.46 1.83 -154.88 -3.56 175.18 -5.29 0 0 24.75 2.60 20.76 -3.01 0 0 -10.64 -0.02 -0.33 -9.37 0.29 2.59 4.76 -5.99 -23.37 -4.34 0 0 12.59 0.06 -1.58 -2.16 0 0 10.45 -0.09 -0.99 -9.47 0.83 0.29 22.98 -4.58 -23.00 -4.77 0 0 124.81 -20.11 -6.00 -2.87 0 0 7.21 0.05 -2.14 -8.65 1.01 -1.70 21.99 -27.55 -14.49 -4.54 0 0 162.98 -10.46 3.28 -2.50 0 0 9.02 -0 -1.26 -7.69 0.66 -3.90 12.36 -44.84 -5.92 -3.21 0 0 146.08 -27.50 2.74 -1.92 0 0 60.70 -3.80 -3.14 8.73 -0 0 74.94 -50.60 63.35 0 -46.66 0 180 52.66 -180 0 -40.14 0 -10.61 -32.10 16.60 0 -8.88 14.22 0 0 0 -8.73 0 -0 -23.63 -4.20 33.88 0 -46.66 0 180 56.87 -180 0 -40.14 0 -11 -45.85 -17.01 0 -8.88 14.22 0 0 0 
1.36 40.64 164.26 -1.63 -14.58 -24.19 0.04 7.24 0 -1.56 7.46 3.74 -0 16.56 0 -14.73 41.72 20.77 -0 34.21 0 3.01 30.29 2.15 0 6.29 0 0.18 -26.77 -0.25 4.06 26.61 -1.12 2.29 -4.45 2.86 14.17 0 0 -62.74 18.82 -77.03 26.12 0 0 0 0 -65.09 27.71 0 0 172.39 -41.28 -165.89 2.29 -0.46 1.83 135.61 31.79 -169.30 5.29 0 0 -14.38 -3.45 3.91 3.01 0 0 12.48 0 0 9.37 0.29 2.59 -22.26 -6.22 -9.30 4.34 0 0 -23.70 -1.26 4.64 2.16 0 0 -2.16 0 -0 9.47 0.83 0.29 -16.83 1.64 0 4.77 0 0 -40.75 -3.69 9.65 2.87 0 0 3.95 -0.04 0.40 8.65 1.01 -1.70 -1.26 -6.64 1.61 4.54 0 0 -66.79 -4.80 7.24 2.50 0 0 6.76 0 -0 7.69 0.66 -3.90 21.94 11.03 -6.43 3.21 0 0 -46.01 -6.02 14.43 1.92 0 0 4.41 0 0 -4.06 26.61 -1.12 -3.65 -3.51 -16.09 -14.17 0 0 39.93 22.87 41.51 -26.12 0 0 0 0 116.29 -27.71 0 0 -40.36 -12.67 -11.63 -2.29 -0.46 1.83 -154.88 -3.56 175.18 -5.29 0 0 24.75 2.60 20.76 -3.01 0 0 -10.64 -0.02 -0.33 -9.37 0.29 2.59 4.76 -5.99 -23.37 -4.34 0 0 12.59 0.06 -1.58 -2.16 0 0 10.45 -0.09 -0.99 -9.47 0.83 0.29 22.98 -4.58 -23.00 -4.77 0 0 124.81 -20.11 -6.00 -2.87 0 0 7.21 0.05 -2.14 -8.65 1.01 -1.70 21.99 -27.55 -14.49 -4.54 0 0 162.98 -10.46 3.28 -2.50 0 0 9.02 -0 -1.26 -7.69 0.66 -3.90 12.36 -44.84 -5.92 -3.21 0 0 146.08 -27.50 2.74 -1.92 0 0 60.70 -3.80 -3.14 8.73 -0 0 74.28 -50.01 62.59 0 -46.66 0 -180 52.71 -180 0 -40.14 0 -10.90 -32.33 16.29 0 -8.88 14.22 0 0 0 -8.73 0 -0 -23.66 -3.95 34.79 0 -46.66 0 180 57.43 180 0 -40.14 0 -10.94 -46.11 -17.25 0 -8.88 14.22 0 0 0 
